<svg width="100" height="100" viewBox="0 0 100 100" fill="none" xmlns="http://www.w3.org/2000/svg">
<path d="M89.3442 48.9958C89.3442 54.2014 88.5301 59.1648 86.9019 63.6773C85.2971 68.9079 85.8895 71.8991 90.9362 75.1658C93.3816 76.7456 96.2106 77.3966 95.3972 81.8967C94.8099 85.1457 91.1463 85.6456 88.4605 85.5043C85.0299 85.3096 82.0562 86.7117 79.5263 88.9393C75.613 92.3985 69.2661 90.8478 66.0191 90.5282C62.7722 90.2087 59.8765 90.5282 55.8736 92.636C51.8707 94.7438 48.4845 97.6102 38.8686 97.6102C31.0421 97.6102 23.3531 92.9865 20.4122 89.7793C17.4713 86.5721 15.3496 85.713 12.2779 85.8553C9.20629 85.9977 4.59679 85.8319 4.60279 81.4216C4.60279 79.1396 5.79353 77.034 8.18614 75.4685C11.3008 73.4305 16.1209 70.416 14.2623 65.9838C12.0046 60.863 10.6557 55.1214 10.6557 48.9958H89.3442Z" fill="url(#paint0_radial_288_1953)"/>
<circle cx="50" cy="47.9994" r="40" transform="rotate(10 50 47.9994)" fill="url(#paint1_linear_288_1953)"/>
<circle cx="37.2053" cy="43.9613" r="9" transform="rotate(10 37.2053 43.9613)" fill="white"/>
<path d="M42.6984 48.9832C42.6484 49.267 42.5065 49.4907 42.2728 49.6543L40.5701 50.8465C40.3364 51.0102 40.0777 51.067 39.7939 51.0169C39.5101 50.9669 39.2863 50.825 39.1227 50.5913L36.5454 46.9106L32.8647 49.4879C32.631 49.6515 32.3722 49.7083 32.0884 49.6582C31.8046 49.6082 31.5809 49.4663 31.4172 49.2326L30.225 47.53C30.0614 47.2963 30.0046 47.0375 30.0546 46.7537C30.1047 46.4699 30.2465 46.2462 30.4802 46.0825L34.161 43.5053L31.5837 39.8245C31.4201 39.5908 31.3633 39.3321 31.4133 39.0483C31.4634 38.7644 31.6052 38.5407 31.8389 38.3771L33.5416 37.1849C33.7753 37.0212 34.034 36.9644 34.3178 37.0145C34.6017 37.0645 34.8254 37.2064 34.989 37.4401L37.5663 41.1208L41.247 38.5436C41.4807 38.3799 41.7395 38.3231 42.0233 38.3732C42.3071 38.4232 42.5308 38.5651 42.6945 38.7988L43.8867 40.5014C44.0503 40.7351 44.1071 40.9939 44.0571 41.2777C44.007 41.5615 43.8652 41.7852 43.6315 41.9489L39.9507 44.5261L42.528 48.2069C42.6916 48.4406 42.7484 48.6993 42.6984 48.9832Z" fill="#363869"/>
<circle cx="62.7996" cy="48.4549" r="9" transform="rotate(10 62.7996 48.4549)" fill="white"/>
<path d="M68.2927 53.4766C68.2427 53.7604 68.1008 53.9841 67.8671 54.1477L66.1644 55.3399C65.9307 55.5036 65.672 55.5604 65.3882 55.5103C65.1044 55.4603 64.8806 55.3184 64.717 55.0847L62.1397 51.404L58.459 53.9813C58.2253 54.1449 57.9665 54.2017 57.6827 54.1517C57.3989 54.1016 57.1752 53.9597 57.0115 53.726L55.8193 52.0234C55.6557 51.7897 55.5989 51.5309 55.6489 51.2471C55.699 50.9633 55.8408 50.7396 56.0745 50.5759L59.7553 47.9987L57.178 44.3179C57.0144 44.0842 56.9576 43.8255 57.0076 43.5417C57.0577 43.2579 57.1995 43.0341 57.4332 42.8705L59.1359 41.6783C59.3696 41.5146 59.6283 41.4578 59.9121 41.5079C60.196 41.5579 60.4197 41.6998 60.5833 41.9335L63.1606 45.6142L66.8413 43.037C67.075 42.8733 67.3338 42.8165 67.6176 42.8666C67.9014 42.9166 68.1251 43.0585 68.2888 43.2922L69.481 44.9948C69.6446 45.2285 69.7014 45.4873 69.6514 45.7711C69.6013 46.0549 69.4595 46.2786 69.2258 46.4423L65.545 49.0196L68.1223 52.7003C68.2859 52.934 68.3427 53.1927 68.2927 53.4766Z" fill="#363869"/>
<g filter="url(#filter0_d_288_1953)">
<g filter="url(#filter1_i_288_1953)">
<path fill-rule="evenodd" clip-rule="evenodd" d="M47.2294 61.9756C49.9488 62.4551 52.5421 60.6393 53.0217 57.9198C53.5012 55.2004 51.6853 52.6071 48.9659 52.1276C46.2464 51.648 43.6531 53.4639 43.1736 56.1834C42.6941 58.9028 44.5099 61.4961 47.2294 61.9756ZM46.5348 65.9149C51.4298 66.778 56.0978 63.5095 56.9609 58.6144C57.824 53.7194 54.5555 49.0515 49.6605 48.1883C44.7654 47.3252 40.0975 50.5937 39.2343 55.4888C38.3712 60.3838 41.6397 65.0517 46.5348 65.9149Z" fill="#B8EAFF"/>
</g>
</g>
<rect x="34" y="19" width="3" height="6" rx="1.5" transform="rotate(30 34 19)" fill="#F3F4A9"/>
<rect x="43" y="16.1213" width="3" height="6" rx="1.5" transform="rotate(-45 43 16.1213)" fill="#A9F4B5"/>
<rect x="47.1962" y="24" width="3" height="6" rx="1.5" transform="rotate(60 47.1962 24)" fill="#B1E8FF"/>
<defs>
<filter id="filter0_d_288_1953" x="28.7826" y="35.5144" width="38.63" height="38.6301" filterUnits="userSpaceOnUse" color-interpolation-filters="sRGB">
<feFlood flood-opacity="0" result="BackgroundImageFix"/>
<feColorMatrix in="SourceAlpha" type="matrix" values="0 0 0 0 0 0 0 0 0 0 0 0 0 0 0 0 0 0 127 0" result="hardAlpha"/>
<feOffset dy="-2.22222"/>
<feGaussianBlur stdDeviation="4.44444"/>
<feComposite in2="hardAlpha" operator="out"/>
<feColorMatrix type="matrix" values="0 0 0 0 0.419608 0 0 0 0 0.803922 0 0 0 0 0.968627 0 0 0 0.6 0"/>
<feBlend mode="normal" in2="BackgroundImageFix" result="effect1_dropShadow_288_1953"/>
<feBlend mode="normal" in="SourceGraphic" in2="effect1_dropShadow_288_1953" result="shape"/>
</filter>
<filter id="filter1_i_288_1953" x="39.0961" y="48.05" width="19.1141" height="19.114" filterUnits="userSpaceOnUse" color-interpolation-filters="sRGB">
<feFlood flood-opacity="0" result="BackgroundImageFix"/>
<feBlend mode="normal" in="SourceGraphic" in2="BackgroundImageFix" result="shape"/>
<feColorMatrix in="SourceAlpha" type="matrix" values="0 0 0 0 0 0 0 0 0 0 0 0 0 0 0 0 0 0 127 0" result="hardAlpha"/>
<feOffset dx="1.11111" dy="1.11111"/>
<feGaussianBlur stdDeviation="0.555556"/>
<feComposite in2="hardAlpha" operator="arithmetic" k2="-1" k3="1"/>
<feColorMatrix type="matrix" values="0 0 0 0 1 0 0 0 0 1 0 0 0 0 1 0 0 0 0.3 0"/>
<feBlend mode="normal" in2="shape" result="effect1_innerShadow_288_1953"/>
</filter>
<radialGradient id="paint0_radial_288_1953" cx="0" cy="0" r="1" gradientUnits="userSpaceOnUse" gradientTransform="translate(58.8991 65.4755) rotate(156.471) scale(73.2507 77.0566)">
<stop offset="0.0364583" stop-color="#41C6FF"/>
<stop offset="1" stop-color="#BBEBFF"/>
</radialGradient>
<linearGradient id="paint1_linear_288_1953" x1="50" y1="53.9994" x2="50" y2="87.9994" gradientUnits="userSpaceOnUse">
<stop stop-color="#41C6FF"/>
<stop offset="1" stop-color="#BBEBFF"/>
</linearGradient>
</defs>
</svg>
