<svg width="100" height="100" viewBox="0 0 100 100" fill="none" xmlns="http://www.w3.org/2000/svg">
<path d="M49.9998 87.9999C49.9998 83.0293 54.0292 78.9999 58.9998 78.9999C63.9703 78.9999 67.9998 83.0293 67.9998 87.9999C67.9998 92.9704 63.9703 96.9999 58.9998 96.9999C54.0292 96.9999 49.9998 92.9704 49.9998 87.9999Z" fill="#52596A"/>
<path d="M69.3637 90.3637C65.849 86.849 65.849 81.1505 69.3637 77.6358C72.8784 74.1211 78.5769 74.1211 82.0916 77.6358C85.6064 81.1505 85.6064 86.849 82.0916 90.3637C78.5769 93.8784 72.8784 93.8784 69.3637 90.3637Z" fill="#52596A"/>
<path d="M30.0916 90.3637C33.6063 86.849 33.6063 81.1505 30.0916 77.6358C26.5769 74.1211 20.8784 74.1211 17.3637 77.6358C13.849 81.1505 13.849 86.849 17.3637 90.3637C20.8784 93.8784 26.5769 93.8784 30.0916 90.3637Z" fill="#52596A"/>
<path d="M31.9998 87.9998C31.9998 83.0292 36.0292 78.9998 40.9998 78.9998C45.9703 78.9998 49.9998 83.0292 49.9998 87.9998C49.9998 92.9703 45.9703 96.9998 40.9998 96.9998C36.0292 96.9998 31.9998 92.9703 31.9998 87.9998Z" fill="#52596A"/>
<circle cx="49.6982" cy="48.2446" r="40" fill="url(#paint0_linear_224_637)"/>
<path d="M49 59C48.2044 59 47.4413 58.6839 46.8787 58.1213C46.3161 57.5587 46 56.7956 46 56V52C46 51.2044 46.3161 50.4413 46.8787 49.8787C47.4413 49.3161 48.2044 49 49 49C49.603 48.994 55 48 55 44C55 42 53 40 50 40C47.559 40 46 42 46 43C46 43.394 45.9224 43.7841 45.7716 44.1481C45.6209 44.512 45.3999 44.8427 45.1213 45.1213C44.8427 45.3999 44.512 45.6209 44.1481 45.7716C43.7841 45.9224 43.394 46 43 46C42.606 46 42.2159 45.9224 41.8519 45.7716C41.488 45.6209 41.1573 45.3999 40.8787 45.1213C40.6001 44.8427 40.3791 44.512 40.2284 44.1481C40.0776 43.7841 40 43.394 40 43C40 38.122 44.58 34 50 34C58 34 61 39.982 61 45C61 49.145 58.723 52.313 54.587 53.92C53.687 54.271 52.797 54.507 52 54.667V56C52 56.7956 51.6839 57.5587 51.1213 58.1213C50.5587 58.6839 49.7956 59 49 59Z" fill="#292F3F"/>
<path d="M49 67C50.6569 67 52 65.6569 52 64C52 62.3431 50.6569 61 49 61C47.3431 61 46 62.3431 46 64C46 65.6569 47.3431 67 49 67Z" fill="#292F3F"/>
<defs>
<linearGradient id="paint0_linear_224_637" x1="49.6982" y1="8" x2="49.6982" y2="88.2446" gradientUnits="userSpaceOnUse">
<stop stop-color="#52596A"/>
<stop offset="1" stop-color="#72798E"/>
</linearGradient>
</defs>
</svg>
