<svg width="120" height="20" viewBox="0 0 120 20" fill="none" xmlns="http://www.w3.org/2000/svg">
<path d="M16.4221 1.57988C16.6088 1.57988 16.7688 1.64655 16.9021 1.77988C17.0354 1.91322 17.1021 2.07322 17.1021 2.25988V17.7799C17.1021 17.9799 17.0354 18.1399 16.9021 18.2599C16.7688 18.3932 16.6088 18.4599 16.4221 18.4599H13.9621C13.7754 18.4599 13.6154 18.3932 13.4821 18.2599C13.3621 18.1399 13.3021 17.9799 13.3021 17.7799V10.8799H12.1021V14.8199C12.1021 15.8332 11.8221 16.6199 11.2621 17.1799C10.7154 17.7399 9.91543 18.0199 8.8621 18.0199H6.6421C5.58877 18.0199 4.7821 17.7399 4.2221 17.1799C3.67543 16.6199 3.4021 15.8332 3.4021 14.8199V2.45988C3.4021 2.27322 3.4621 2.11322 3.5821 1.97988C3.71543 1.84655 3.87543 1.77988 4.0621 1.77988H6.4221C6.60877 1.77988 6.76877 1.84655 6.9021 1.97988C7.03543 2.11322 7.1021 2.27322 7.1021 2.45988V6.27988H8.4421V2.45988C8.4421 2.27322 8.5021 2.11322 8.6221 1.97988C8.75543 1.84655 8.91543 1.77988 9.1021 1.77988H11.4221C11.6088 1.77988 11.7688 1.84655 11.9021 1.97988C12.0354 2.11322 12.1021 2.27322 12.1021 2.45988V7.03988H13.3021V2.25988C13.3021 2.07322 13.3621 1.91322 13.4821 1.77988C13.6154 1.64655 13.7754 1.57988 13.9621 1.57988H16.4221ZM21.0621 1.57988C21.2488 1.57988 21.4088 1.64655 21.5421 1.77988C21.6754 1.91322 21.7421 2.07322 21.7421 2.25988V17.9399C21.7421 18.1399 21.6754 18.2999 21.5421 18.4199C21.4088 18.5532 21.2488 18.6199 21.0621 18.6199H18.5621C18.3754 18.6199 18.2154 18.5532 18.0821 18.4199C17.9621 18.2999 17.9021 18.1399 17.9021 17.9399V2.25988C17.9021 2.07322 17.9621 1.91322 18.0821 1.77988C18.2154 1.64655 18.3754 1.57988 18.5621 1.57988H21.0621ZM8.4421 14.6799V10.1199H7.1021V14.6799H8.4421Z" fill="current"/>
<path d="M33.1174 1.49988C33.3574 1.49988 33.5174 1.56655 33.5974 1.69988C33.6907 1.81988 33.6774 1.99322 33.5574 2.21988L32.4174 4.43988C34.5774 4.98655 36.3107 5.87322 37.6174 7.09988C38.9374 8.32655 39.8107 9.91322 40.2374 11.8599C40.2774 12.0599 40.2574 12.2332 40.1774 12.3799C40.0974 12.5266 39.9041 12.5999 39.5974 12.5999H36.9974C36.7174 12.5999 36.4841 12.5732 36.2974 12.5199C36.1241 12.4532 35.9974 12.3132 35.9174 12.0999C35.5441 11.0599 34.9374 10.1599 34.0974 9.39988C33.2707 8.63988 32.1707 8.02655 30.7974 7.55988L28.5374 11.9599C28.3907 12.2532 28.1774 12.4399 27.8974 12.5199C27.6307 12.5866 27.3774 12.6199 27.1374 12.6199H24.3374C24.1241 12.6199 23.9774 12.5666 23.8974 12.4599C23.8174 12.3532 23.8374 12.1866 23.9574 11.9599L29.0974 1.99988C29.2041 1.77322 29.3441 1.63322 29.5174 1.57988C29.6907 1.52655 29.9307 1.49988 30.2374 1.49988H33.1174ZM40.1174 14.9399C40.3041 14.9399 40.4574 15.0066 40.5774 15.1399C40.7107 15.2732 40.7774 15.4332 40.7774 15.6199V17.7399C40.7774 17.9399 40.7107 18.0999 40.5774 18.2199C40.4574 18.3532 40.3041 18.4199 40.1174 18.4199H24.0374C23.8507 18.4199 23.6907 18.3532 23.5574 18.2199C23.4374 18.0999 23.3774 17.9399 23.3774 17.7399V15.6199C23.3774 15.4332 23.4374 15.2732 23.5574 15.1399C23.6907 15.0066 23.8507 14.9399 24.0374 14.9399H40.1174Z" fill="current"/>
<path d="M58.006 1.57988C58.1927 1.57988 58.3527 1.65322 58.486 1.79988C58.6193 1.93322 58.686 2.09988 58.686 2.29988V4.27988C58.686 4.46655 58.6193 4.62655 58.486 4.75988C58.3527 4.89322 58.1927 4.95988 58.006 4.95988H47.246V5.57988H57.606C57.7927 5.57988 57.9527 5.65322 58.086 5.79988C58.2193 5.93322 58.286 6.09988 58.286 6.29988V8.11988C58.286 8.30655 58.2193 8.46655 58.086 8.59988C57.9527 8.73322 57.7927 8.79988 57.606 8.79988H47.246V9.39988H58.206C58.3927 9.39988 58.5527 9.47322 58.686 9.61988C58.8193 9.75322 58.886 9.91988 58.886 10.1199V12.1399C58.886 12.3266 58.8193 12.4866 58.686 12.6199C58.5527 12.7532 58.3927 12.8199 58.206 12.8199H46.326C44.0327 12.8199 42.886 11.6866 42.886 9.41988V2.25988C42.886 2.07322 42.9527 1.91322 43.086 1.77988C43.2327 1.64655 43.3993 1.57988 43.586 1.57988H58.006ZM58.926 14.9399C59.1127 14.9399 59.266 15.0066 59.386 15.1399C59.5193 15.2732 59.586 15.4332 59.586 15.6199V17.7399C59.586 17.9399 59.5193 18.0999 59.386 18.2199C59.266 18.3532 59.1127 18.4199 58.926 18.4199H42.846C42.6593 18.4199 42.4993 18.3532 42.366 18.2199C42.246 18.0999 42.186 17.9399 42.186 17.7399V15.6199C42.186 15.4332 42.246 15.2732 42.366 15.1399C42.4993 15.0066 42.6593 14.9399 42.846 14.9399H58.926Z" fill="current"/>
<path d="M72.3746 10.3999C72.3746 10.5865 72.3079 10.7466 72.1746 10.8799C72.0413 11.0132 71.8813 11.0799 71.6946 11.0799H65.7346V14.6199H72.0946C72.2813 14.6199 72.4413 14.6932 72.5746 14.8399C72.7079 14.9732 72.7746 15.1399 72.7746 15.3399V17.3399C72.7746 17.5266 72.7079 17.6866 72.5746 17.8199C72.4413 17.9532 72.2813 18.0199 72.0946 18.0199H64.9946C62.7013 18.0199 61.5546 16.8866 61.5546 14.6199V8.49988C61.5546 8.29988 61.6213 8.13322 61.7546 7.99988C61.8879 7.85322 62.0479 7.77988 62.2346 7.77988H68.2546V5.17988H62.1346C61.9479 5.17988 61.7879 5.11322 61.6546 4.97988C61.5213 4.84655 61.4546 4.68655 61.4546 4.49988V2.49988C61.4546 2.29988 61.5213 2.13322 61.6546 1.99988C61.7879 1.85322 61.9479 1.77988 62.1346 1.77988H71.5346C72.0946 1.77988 72.3746 2.02655 72.3746 2.51988V10.3999ZM77.2346 1.57988C77.4213 1.57988 77.5813 1.64655 77.7146 1.77988C77.8479 1.91322 77.9146 2.07322 77.9146 2.25988V7.13988H79.2546C79.4413 7.13988 79.6013 7.21322 79.7346 7.35988C79.8679 7.49322 79.9346 7.65988 79.9346 7.85988V10.2999C79.9346 10.4866 79.8679 10.6466 79.7346 10.7799C79.6013 10.9132 79.4413 10.9799 79.2546 10.9799H77.9146V17.9399C77.9146 18.1399 77.8479 18.2999 77.7146 18.4199C77.5813 18.5532 77.4213 18.6199 77.2346 18.6199H74.2146C74.0279 18.6199 73.8679 18.5532 73.7346 18.4199C73.6146 18.2999 73.5546 18.1399 73.5546 17.9399V2.25988C73.5546 2.07322 73.6146 1.91322 73.7346 1.77988C73.8679 1.64655 74.0279 1.57988 74.2146 1.57988H77.2346Z" fill="current"/>
<path d="M83.084 10.4599C82.364 10.4599 81.8106 10.2866 81.424 9.93988C81.0373 9.57988 80.844 9.01988 80.844 8.25988V2.25988C80.844 2.07322 80.904 1.91322 81.024 1.77988C81.1573 1.64655 81.3173 1.57988 81.504 1.57988H84.304C84.4906 1.57988 84.6506 1.64655 84.784 1.77988C84.9173 1.91322 84.984 2.07322 84.984 2.25988V3.09988H87.764V2.25988C87.764 2.07322 87.824 1.91322 87.944 1.77988C88.0773 1.64655 88.2373 1.57988 88.424 1.57988H91.184C91.3706 1.57988 91.5306 1.64655 91.664 1.77988C91.7973 1.91322 91.864 2.07322 91.864 2.25988V8.25988C91.864 9.01988 91.6706 9.57988 91.284 9.93988C90.8973 10.2866 90.344 10.4599 89.624 10.4599H83.084ZM97.024 15.0799C97.2106 15.0799 97.364 15.1532 97.484 15.2999C97.6173 15.4332 97.684 15.5932 97.684 15.7799V17.7999C97.684 17.9999 97.6173 18.1599 97.484 18.2799C97.364 18.4132 97.2106 18.4799 97.024 18.4799H83.964C83.684 18.4799 83.4173 18.4266 83.164 18.3199C82.924 18.2132 82.7106 18.0732 82.524 17.8999C82.324 17.7132 82.1706 17.4932 82.064 17.2399C81.9573 16.9999 81.904 16.7399 81.904 16.4599V12.2199C81.904 12.0199 81.9773 11.8532 82.124 11.7199C82.2706 11.5866 82.4373 11.5199 82.624 11.5199H85.624C85.8106 11.5199 85.9706 11.5866 86.104 11.7199C86.2373 11.8532 86.304 12.0199 86.304 12.2199V15.0799H97.024ZM96.804 1.37988C96.9906 1.37988 97.1506 1.44655 97.284 1.57988C97.4173 1.71322 97.484 1.87322 97.484 2.05988V11.9599C97.484 12.1599 97.4173 12.3266 97.284 12.4599C97.1506 12.5799 96.9906 12.6399 96.804 12.6399H93.804C93.6173 12.6399 93.4573 12.5799 93.324 12.4599C93.1906 12.3266 93.124 12.1599 93.124 11.9599V2.05988C93.124 1.87322 93.1906 1.71322 93.324 1.57988C93.4573 1.44655 93.6173 1.37988 93.804 1.37988H96.804ZM87.764 7.35988V5.99988H84.984V7.35988H87.764Z" fill="current"/>
<path d="M108.938 1.49988C109.178 1.49988 109.338 1.56655 109.418 1.69988C109.511 1.81988 109.498 1.99322 109.378 2.21988L108.238 4.43988C110.398 4.98655 112.131 5.87322 113.438 7.09988C114.758 8.32655 115.631 9.91322 116.058 11.8599C116.098 12.0599 116.078 12.2332 115.998 12.3799C115.918 12.5266 115.724 12.5999 115.418 12.5999H112.818C112.538 12.5999 112.304 12.5732 112.118 12.5199C111.944 12.4532 111.818 12.3132 111.738 12.0999C111.364 11.0599 110.758 10.1599 109.918 9.39988C109.091 8.63988 107.991 8.02655 106.618 7.55988L104.358 11.9599C104.211 12.2532 103.998 12.4399 103.718 12.5199C103.451 12.5866 103.198 12.6199 102.958 12.6199H100.158C99.9444 12.6199 99.7977 12.5666 99.7177 12.4599C99.6377 12.3532 99.6577 12.1866 99.7777 11.9599L104.918 1.99988C105.024 1.77322 105.164 1.63322 105.338 1.57988C105.511 1.52655 105.751 1.49988 106.058 1.49988H108.938ZM115.938 14.9399C116.124 14.9399 116.278 15.0066 116.398 15.1399C116.531 15.2732 116.598 15.4332 116.598 15.6199V17.7399C116.598 17.9399 116.531 18.0999 116.398 18.2199C116.278 18.3532 116.124 18.4199 115.938 18.4199H99.8577C99.6711 18.4199 99.5111 18.3532 99.3777 18.2199C99.2577 18.0999 99.1977 17.9399 99.1977 17.7399V15.6199C99.1977 15.4332 99.2577 15.2732 99.3777 15.1399C99.5111 15.0066 99.6711 14.9399 99.8577 14.9399H115.938Z" fill="current"/>
</svg>
