<svg width="30" height="48" viewBox="0 0 30 48" fill="none" xmlns="http://www.w3.org/2000/svg">
<path d="M15 44.4C15 42.9088 16.2088 41.7 17.7 41.7C19.1912 41.7 20.4 42.9088 20.4 44.4C20.4 45.8912 19.1912 47.1 17.7 47.1C16.2088 47.1 15 45.8912 15 44.4Z" fill="#CA6BF7"/>
<path d="M20.8092 45.1092C19.7548 44.0548 19.7548 42.3452 20.8092 41.2908C21.8636 40.2364 23.5732 40.2364 24.6276 41.2908C25.682 42.3452 25.682 44.0548 24.6276 45.1092C23.5732 46.1636 21.8636 46.1636 20.8092 45.1092Z" fill="#CA6BF7"/>
<path d="M9.02758 45.1092C10.082 44.0548 10.082 42.3452 9.02758 41.2908C7.97316 40.2364 6.26362 40.2364 5.2092 41.2908C4.15479 42.3452 4.15479 44.0548 5.2092 45.1092C6.26362 46.1636 7.97316 46.1636 9.02758 45.1092Z" fill="#CA6BF7"/>
<path d="M9.6001 44.4C9.6001 42.9088 10.8089 41.7 12.3001 41.7C13.7913 41.7 15.0001 42.9088 15.0001 44.4C15.0001 45.8912 13.7913 47.1 12.3001 47.1C10.8089 47.1 9.6001 45.8912 9.6001 44.4Z" fill="#CA6BF7"/>
<circle cx="15" cy="32.4" r="12" fill="url(#paint0_linear_26_1345)"/>
<rect x="10.2" y="23.7" width="0.9" height="1.8" rx="0.45" transform="rotate(30 10.2 23.7)" fill="#F3F4A9"/>
<rect x="12.9" y="22.8364" width="0.9" height="1.8" rx="0.45" transform="rotate(-45 12.9 22.8364)" fill="#A9F4B5"/>
<rect x="14.1589" y="25.2" width="0.9" height="1.8" rx="0.45" transform="rotate(60 14.1589 25.2)" fill="#B1E8FF"/>
<path d="M15 26.4C15 24.9088 16.2088 23.7 17.7 23.7C19.1912 23.7 20.4 24.9088 20.4 26.4C20.4 27.8912 19.1912 29.1 17.7 29.1C16.2088 29.1 15 27.8912 15 26.4Z" fill="#41C6FF"/>
<path d="M20.8092 27.1092C19.7548 26.0548 19.7548 24.3452 20.8092 23.2908C21.8636 22.2364 23.5732 22.2364 24.6276 23.2908C25.682 24.3452 25.682 26.0548 24.6276 27.1092C23.5732 28.1636 21.8636 28.1636 20.8092 27.1092Z" fill="#41C6FF"/>
<path d="M9.02758 27.1092C10.082 26.0548 10.082 24.3452 9.02758 23.2908C7.97316 22.2364 6.26362 22.2364 5.2092 23.2908C4.15479 24.3452 4.15479 26.0548 5.2092 27.1092C6.26362 28.1636 7.97316 28.1636 9.02758 27.1092Z" fill="#41C6FF"/>
<path d="M9.6001 26.4C9.6001 24.9088 10.8089 23.7 12.3001 23.7C13.7913 23.7 15.0001 24.9088 15.0001 26.4C15.0001 27.8912 13.7913 29.1 12.3001 29.1C10.8089 29.1 9.6001 27.8912 9.6001 26.4Z" fill="#41C6FF"/>
<circle cx="14.9095" cy="14.4734" r="12" fill="url(#paint1_linear_26_1345)"/>
<rect x="10.2" y="5.70001" width="0.9" height="1.8" rx="0.45" transform="rotate(30 10.2 5.70001)" fill="#F3F4A9"/>
<rect x="12.9" y="4.8364" width="0.9" height="1.8" rx="0.45" transform="rotate(-45 12.9 4.8364)" fill="#A9F4B5"/>
<rect x="14.1589" y="7.20001" width="0.9" height="1.8" rx="0.45" transform="rotate(60 14.1589 7.20001)" fill="#B1E8FF"/>
<defs>
<linearGradient id="paint0_linear_26_1345" x1="15" y1="34.2" x2="15" y2="44.4" gradientUnits="userSpaceOnUse">
<stop stop-color="#CA6BF7"/>
<stop offset="1" stop-color="#EBC1FF"/>
</linearGradient>
<linearGradient id="paint1_linear_26_1345" x1="14.9095" y1="16.2734" x2="14.9095" y2="26.4734" gradientUnits="userSpaceOnUse">
<stop stop-color="#41C6FF"/>
<stop offset="1" stop-color="#BBEBFF"/>
</linearGradient>
</defs>
</svg>
