<svg width="24" height="52" viewBox="0 0 24 52" fill="none" xmlns="http://www.w3.org/2000/svg">
<path d="M12 49.12C12 47.9271 12.9671 46.96 14.16 46.96C15.3529 46.96 16.32 47.9271 16.32 49.12C16.32 50.313 15.3529 51.28 14.16 51.28C12.9671 51.28 12 50.313 12 49.12Z" fill="#CA6BF7"/>
<path d="M16.6473 49.6873C15.8038 48.8438 15.8038 47.4762 16.6473 46.6326C17.4909 45.7891 18.8585 45.7891 19.702 46.6326C20.5456 47.4762 20.5456 48.8438 19.702 49.6873C18.8585 50.5309 17.4909 50.5309 16.6473 49.6873Z" fill="#CA6BF7"/>
<path d="M7.22204 49.6873C8.06557 48.8438 8.06557 47.4762 7.22204 46.6326C6.37851 45.7891 5.01087 45.7891 4.16734 46.6326C3.32381 47.4762 3.32381 48.8438 4.16734 49.6873C5.01087 50.5309 6.37851 50.5309 7.22204 49.6873Z" fill="#CA6BF7"/>
<path d="M7.68005 49.12C7.68005 47.927 8.64712 46.96 9.84005 46.96C11.033 46.96 12.0001 47.927 12.0001 49.12C12.0001 50.3129 11.033 51.28 9.84005 51.28C8.64712 51.28 7.68005 50.3129 7.68005 49.12Z" fill="#CA6BF7"/>
<circle cx="12" cy="39.52" r="9.6" fill="url(#paint0_linear_26_1374)"/>
<rect x="8.16003" y="32.56" width="0.72" height="1.44" rx="0.36" transform="rotate(30 8.16003 32.56)" fill="#F3F4A9"/>
<rect x="10.3199" y="31.8691" width="0.72" height="1.44" rx="0.36" transform="rotate(-45 10.3199 31.8691)" fill="#A9F4B5"/>
<rect x="11.327" y="33.76" width="0.72" height="1.44" rx="0.36" transform="rotate(60 11.327 33.76)" fill="#B1E8FF"/>
<path d="M12 35.12C12 33.9271 12.9671 32.96 14.16 32.96C15.3529 32.96 16.32 33.9271 16.32 35.12C16.32 36.313 15.3529 37.28 14.16 37.28C12.9671 37.28 12 36.313 12 35.12Z" fill="#41C6FF"/>
<path d="M16.6473 35.6873C15.8038 34.8438 15.8038 33.4762 16.6473 32.6326C17.4909 31.7891 18.8585 31.7891 19.702 32.6326C20.5456 33.4762 20.5456 34.8438 19.702 35.6873C18.8585 36.5309 17.4909 36.5309 16.6473 35.6873Z" fill="#41C6FF"/>
<path d="M7.22204 35.6873C8.06557 34.8438 8.06557 33.4762 7.22204 32.6326C6.37851 31.7891 5.01087 31.7891 4.16734 32.6326C3.32381 33.4762 3.32381 34.8438 4.16734 35.6873C5.01087 36.5309 6.37851 36.5309 7.22204 35.6873Z" fill="#41C6FF"/>
<path d="M7.68005 35.12C7.68005 33.927 8.64712 32.96 9.84005 32.96C11.033 32.96 12.0001 33.927 12.0001 35.12C12.0001 36.3129 11.033 37.28 9.84005 37.28C8.64712 37.28 7.68005 36.3129 7.68005 35.12Z" fill="#41C6FF"/>
<circle cx="11.9276" cy="25.5788" r="9.6" fill="url(#paint1_linear_26_1374)"/>
<rect x="8.16003" y="18.56" width="0.72" height="1.44" rx="0.36" transform="rotate(30 8.16003 18.56)" fill="#F3F4A9"/>
<rect x="10.3199" y="17.8691" width="0.72" height="1.44" rx="0.36" transform="rotate(-45 10.3199 17.8691)" fill="#A9F4B5"/>
<rect x="11.327" y="19.76" width="0.72" height="1.44" rx="0.36" transform="rotate(60 11.327 19.76)" fill="#B1E8FF"/>
<path d="M12 21.12C12 19.9271 12.9671 18.96 14.16 18.96C15.3529 18.96 16.32 19.9271 16.32 21.12C16.32 22.313 15.3529 23.28 14.16 23.28C12.9671 23.28 12 22.313 12 21.12Z" fill="#F76B90"/>
<path d="M16.6473 21.6873C15.8038 20.8438 15.8038 19.4762 16.6473 18.6326C17.4909 17.7891 18.8585 17.7891 19.702 18.6326C20.5456 19.4762 20.5456 20.8438 19.702 21.6873C18.8585 22.5309 17.4909 22.5309 16.6473 21.6873Z" fill="#F76B90"/>
<path d="M7.22204 21.6873C8.06557 20.8438 8.06557 19.4762 7.22204 18.6326C6.37851 17.7891 5.01087 17.7891 4.16734 18.6326C3.32381 19.4762 3.32381 20.8438 4.16734 21.6873C5.01087 22.5309 6.37851 22.5309 7.22204 21.6873Z" fill="#F76B90"/>
<path d="M7.68005 21.12C7.68005 19.927 8.64712 18.96 9.84005 18.96C11.033 18.96 12.0001 19.927 12.0001 21.12C12.0001 22.3129 11.033 23.28 9.84005 23.28C8.64712 23.28 7.68005 22.3129 7.68005 21.12Z" fill="#F76B90"/>
<circle cx="11.9276" cy="11.5788" r="9.6" fill="url(#paint2_linear_26_1374)"/>
<rect x="8.16003" y="4.56" width="0.72" height="1.44" rx="0.36" transform="rotate(30 8.16003 4.56)" fill="#F3F4A9"/>
<rect x="10.3199" y="3.86914" width="0.72" height="1.44" rx="0.36" transform="rotate(-45 10.3199 3.86914)" fill="#A9F4B5"/>
<rect x="11.327" y="5.76001" width="0.72" height="1.44" rx="0.36" transform="rotate(60 11.327 5.76001)" fill="#B1E8FF"/>
<defs>
<linearGradient id="paint0_linear_26_1374" x1="12" y1="40.96" x2="12" y2="49.12" gradientUnits="userSpaceOnUse">
<stop stop-color="#CA6BF7"/>
<stop offset="1" stop-color="#EBC1FF"/>
</linearGradient>
<linearGradient id="paint1_linear_26_1374" x1="11.9276" y1="27.0188" x2="11.9276" y2="35.1788" gradientUnits="userSpaceOnUse">
<stop stop-color="#41C6FF"/>
<stop offset="1" stop-color="#BBEBFF"/>
</linearGradient>
<linearGradient id="paint2_linear_26_1374" x1="11.9276" y1="13.0188" x2="11.9276" y2="21.1788" gradientUnits="userSpaceOnUse">
<stop stop-color="#F76B90"/>
<stop offset="1" stop-color="#FFB7CA"/>
</linearGradient>
</defs>
</svg>
