<svg width="24" height="24" viewBox="0 0 24 24" fill="none" xmlns="http://www.w3.org/2000/svg">
<g id="ic/close">
<path id="Vector" d="M12.0002 13.2776L7.5287 17.749C7.3614 17.9163 7.14847 18 6.88992 18C6.63136 18 6.41843 17.9163 6.25113 17.749C6.08383 17.5817 6.00018 17.3688 6.00018 17.1103C6.00018 16.8517 6.08383 16.6388 6.25113 16.4715L10.7226 12L6.25113 7.52852C6.08383 7.36122 6.00018 7.14829 6.00018 6.88973C6.00018 6.63118 6.08383 6.41825 6.25113 6.25095C6.41843 6.08365 6.63136 6 6.88992 6C7.14847 6 7.3614 6.08365 7.5287 6.25095L12.0002 10.7224L16.4717 6.25095C16.639 6.08365 16.8519 6 17.1104 6C17.369 6 17.5819 6.08365 17.7492 6.25095C17.9165 6.41825 18.0002 6.63118 18.0002 6.88973C18.0002 7.14829 17.9165 7.36122 17.7492 7.52852L13.2777 12L17.7492 16.4715C17.9165 16.6388 18.0002 16.8517 18.0002 17.1103C18.0002 17.3688 17.9165 17.5817 17.7492 17.749C17.5819 17.9163 17.369 18 17.1104 18C16.8519 18 16.639 17.9163 16.4717 17.749L12.0002 13.2776Z" fill="#333333"/>
</g>
</svg>
