<svg width="30" height="30" viewBox="0 0 30 30" fill="none" xmlns="http://www.w3.org/2000/svg">
<rect width="30" height="30" rx="15" fill="current"/>
<path d="M14.25 9V8C14.25 7.80109 14.329 7.61032 14.4697 7.46967C14.6103 7.32902 14.8011 7.25 15 7.25C15.1989 7.25 15.3897 7.32902 15.5303 7.46967C15.671 7.61032 15.75 7.80109 15.75 8V9C15.75 9.19891 15.671 9.38968 15.5303 9.53033C15.3897 9.67098 15.1989 9.75 15 9.75C14.8011 9.75 14.6103 9.67098 14.4697 9.53033C14.329 9.38968 14.25 9.19891 14.25 9ZM19.25 15C19.25 15.8406 19.0007 16.6623 18.5337 17.3612C18.0667 18.0601 17.403 18.6048 16.6264 18.9265C15.8498 19.2482 14.9953 19.3323 14.1709 19.1683C13.3464 19.0044 12.5892 18.5996 11.9948 18.0052C11.4004 17.4108 10.9956 16.6536 10.8317 15.8291C10.6677 15.0047 10.7518 14.1502 11.0735 13.3736C11.3952 12.597 11.9399 11.9333 12.6388 11.4663C13.3377 10.9993 14.1594 10.75 15 10.75C16.1268 10.7512 17.2071 11.1993 18.0039 11.9961C18.8007 12.7929 19.2488 13.8732 19.25 15ZM17.75 15C17.75 14.4561 17.5887 13.9244 17.2865 13.4722C16.9844 13.0199 16.5549 12.6675 16.0524 12.4593C15.5499 12.2512 14.9969 12.1967 14.4635 12.3028C13.9301 12.4089 13.4401 12.6709 13.0555 13.0555C12.6709 13.4401 12.4089 13.9301 12.3028 14.4635C12.1967 14.9969 12.2512 15.5499 12.4593 16.0524C12.6675 16.5549 13.0199 16.9844 13.4722 17.2865C13.9244 17.5887 14.4561 17.75 15 17.75C15.7291 17.7492 16.4281 17.4592 16.9436 16.9436C17.4592 16.4281 17.7492 15.7291 17.75 15ZM10.2194 11.2806C10.2891 11.3504 10.372 11.4057 10.4631 11.4435C10.5543 11.4812 10.652 11.5007 10.7506 11.5007C10.8493 11.5007 10.947 11.4812 11.0381 11.4435C11.1293 11.4057 11.2121 11.3504 11.2819 11.2806C11.3516 11.2109 11.407 11.128 11.4447 11.0369C11.4825 10.9457 11.5019 10.848 11.5019 10.7494C11.5019 10.6507 11.4825 10.553 11.4447 10.4619C11.407 10.3707 11.3516 10.2879 11.2819 10.2181L10.5319 9.46813C10.391 9.32723 10.1999 9.24807 10.0006 9.24807C9.80137 9.24807 9.61027 9.32723 9.46937 9.46813C9.32848 9.60902 9.24932 9.80012 9.24932 9.99938C9.24932 10.1986 9.32848 10.3897 9.46937 10.5306L10.2194 11.2806ZM10.2194 18.7181L9.46937 19.4681C9.39961 19.5379 9.34427 19.6207 9.30651 19.7119C9.26876 19.803 9.24932 19.9007 9.24932 19.9994C9.24932 20.098 9.26876 20.1957 9.30651 20.2869C9.34427 20.378 9.39961 20.4609 9.46937 20.5306C9.61027 20.6715 9.80137 20.7507 10.0006 20.7507C10.0993 20.7507 10.197 20.7312 10.2881 20.6935C10.3793 20.6557 10.4621 20.6004 10.5319 20.5306L11.2819 19.7806C11.4228 19.6397 11.5019 19.4486 11.5019 19.2494C11.5019 19.0501 11.4228 18.859 11.2819 18.7181C11.141 18.5772 10.9499 18.4981 10.7506 18.4981C10.5514 18.4981 10.3603 18.5772 10.2194 18.7181ZM19.25 11.5C19.3485 11.5001 19.4461 11.4807 19.5371 11.4431C19.6282 11.4055 19.7109 11.3503 19.7806 11.2806L20.5306 10.5306C20.6004 10.4609 20.6557 10.378 20.6935 10.2869C20.7312 10.1957 20.7507 10.098 20.7507 9.99938C20.7507 9.90071 20.7312 9.80302 20.6935 9.71186C20.6557 9.62071 20.6004 9.53789 20.5306 9.46813C20.4609 9.39836 20.378 9.34302 20.2869 9.30526C20.1957 9.26751 20.098 9.24807 19.9994 9.24807C19.9007 9.24807 19.803 9.26751 19.7119 9.30526C19.6207 9.34302 19.5379 9.39836 19.4681 9.46813L18.7181 10.2181C18.6126 10.323 18.5407 10.4569 18.5115 10.6028C18.4823 10.7487 18.4971 10.9 18.5542 11.0374C18.6112 11.1749 18.7078 11.2922 18.8317 11.3746C18.9556 11.457 19.1012 11.5006 19.25 11.5ZM19.7806 18.7194C19.6397 18.5785 19.4486 18.4993 19.2494 18.4993C19.0501 18.4993 18.859 18.5785 18.7181 18.7194C18.5772 18.8603 18.4981 19.0514 18.4981 19.2506C18.4981 19.4499 18.5772 19.641 18.7181 19.7819L19.4681 20.5319C19.609 20.6728 19.8001 20.7519 19.9994 20.7519C20.1986 20.7519 20.3897 20.6728 20.5306 20.5319C20.6715 20.391 20.7507 20.1999 20.7507 20.0006C20.7507 19.8014 20.6715 19.6103 20.5306 19.4694L19.7806 18.7194ZM9.75 15C9.75 14.8011 9.67098 14.6103 9.53033 14.4697C9.38968 14.329 9.19891 14.25 9 14.25H8C7.80109 14.25 7.61032 14.329 7.46967 14.4697C7.32902 14.6103 7.25 14.8011 7.25 15C7.25 15.1989 7.32902 15.3897 7.46967 15.5303C7.61032 15.671 7.80109 15.75 8 15.75H9C9.19891 15.75 9.38968 15.671 9.53033 15.5303C9.67098 15.3897 9.75 15.1989 9.75 15ZM15 20.25C14.8011 20.25 14.6103 20.329 14.4697 20.4697C14.329 20.6103 14.25 20.8011 14.25 21V22C14.25 22.1989 14.329 22.3897 14.4697 22.5303C14.6103 22.671 14.8011 22.75 15 22.75C15.1989 22.75 15.3897 22.671 15.5303 22.5303C15.671 22.3897 15.75 22.1989 15.75 22V21C15.75 20.8011 15.671 20.6103 15.5303 20.4697C15.3897 20.329 15.1989 20.25 15 20.25ZM22 14.25H21C20.8011 14.25 20.6103 14.329 20.4697 14.4697C20.329 14.6103 20.25 14.8011 20.25 15C20.25 15.1989 20.329 15.3897 20.4697 15.5303C20.6103 15.671 20.8011 15.75 21 15.75H22C22.1989 15.75 22.3897 15.671 22.5303 15.5303C22.671 15.3897 22.75 15.1989 22.75 15C22.75 14.8011 22.671 14.6103 22.5303 14.4697C22.3897 14.329 22.1989 14.25 22 14.25Z" fill="#333333"/>
</svg>
