<svg width="30" height="30" viewBox="0 0 30 30" fill="current" xmlns="http://www.w3.org/2000/svg">
<path fill-rule="evenodd" clip-rule="evenodd" d="M12.8163 11.4741L12.8163 11.4729C12.8163 10.9 12.902 10.3429 13.0612 9.81726C10.9823 10.6063 9.5 12.6212 9.5 14.9819C9.5 16.4454 10.0814 17.849 11.1162 18.8838C12.1511 19.9186 13.5546 20.5 15.0181 20.5C17.3749 20.5 19.391 19.0197 20.1823 16.9384C19.7099 17.0812 19.2189 17.1628 18.7213 17.1795C17.6978 17.2139 16.6839 16.9725 15.7857 16.4807C14.8874 15.9889 14.1379 15.2647 13.6155 14.3839C13.0931 13.5031 12.8171 12.4981 12.8163 11.4741ZM20.7963 15.0209C21.3889 14.6544 22.0674 15.1457 21.9972 15.7617C21.6073 19.2707 18.6285 22 15.0181 22C13.1568 22 11.3717 21.2606 10.0555 19.9445C8.7394 18.6283 8 16.8432 8 14.9819C8 11.3637 10.7371 8.38492 14.2461 8.00282C14.9401 7.94824 15.3222 8.69683 14.9713 9.21929C14.558 9.86652 14.3163 10.6463 14.3163 11.4729C14.3169 12.2281 14.5204 12.9692 14.9057 13.6187C15.2909 14.2683 15.8437 14.8023 16.5061 15.165C17.1684 15.5277 17.9161 15.7057 18.6709 15.6803C19.4257 15.655 20.1597 15.4272 20.7963 15.0209Z" fill="#333333"/>
</svg>
