<svg width="24" height="24" viewBox="0 0 24 24" fill="none" xmlns="http://www.w3.org/2000/svg">
<g id="gnb_icons">
<g id="Vector">
<path fill-rule="evenodd" clip-rule="evenodd" d="M12 19.5C16.1421 19.5 19.5 16.1421 19.5 12C19.5 7.85786 16.1421 4.5 12 4.5C7.85786 4.5 4.5 7.85786 4.5 12C4.5 16.1421 7.85786 19.5 12 19.5ZM12 21C16.9706 21 21 16.9706 21 12C21 7.02944 16.9706 3 12 3C7.02944 3 3 7.02944 3 12C3 16.9706 7.02944 21 12 21Z" fill="#9096A9"/>
<path d="M10.5 10C10.5 10.5523 10.0523 11 9.5 11C8.94772 11 8.5 10.5523 8.5 10C8.5 9.44772 8.94772 9 9.5 9C10.0523 9 10.5 9.44772 10.5 10Z" fill="#9096A9"/>
<path d="M15.5 10C15.5 10.5523 15.0523 11 14.5 11C13.9477 11 13.5 10.5523 13.5 10C13.5 9.44772 13.9477 9 14.5 9C15.0523 9 15.5 9.44772 15.5 10Z" fill="#9096A9"/>
<path fill-rule="evenodd" clip-rule="evenodd" d="M8.74775 12.2937C9.13783 12.1544 9.56699 12.3577 9.70631 12.7477C10.0142 13.6098 10.9872 14.25 12 14.25C13.0128 14.25 13.9858 13.6098 14.2937 12.7477C14.433 12.3577 14.8622 12.1544 15.2523 12.2937C15.6423 12.433 15.8456 12.8622 15.7063 13.2523C15.157 14.7902 13.5586 15.75 12 15.75C10.4414 15.75 8.84298 14.7902 8.29369 13.2523C8.15438 12.8622 8.35767 12.433 8.74775 12.2937Z" fill="#9096A9"/>
</g>
</g>
</svg>
