<svg width="24" height="24" viewBox="0 0 24 24" fill="none" xmlns="http://www.w3.org/2000/svg">
<g id="gnb_icons">
<path id="Subtract" fill-rule="evenodd" clip-rule="evenodd" d="M12 21C16.9706 21 21 16.9706 21 12C21 7.02944 16.9706 3 12 3C7.02944 3 3 7.02944 3 12C3 16.9706 7.02944 21 12 21ZM9.5 11C10.0523 11 10.5 10.5523 10.5 10C10.5 9.44772 10.0523 9 9.5 9C8.94772 9 8.5 9.44772 8.5 10C8.5 10.5523 8.94772 11 9.5 11ZM8.74795 12.2939C9.13803 12.1546 9.5672 12.3579 9.70651 12.748C10.0144 13.61 10.9874 14.2502 12.0002 14.2502C13.0131 14.2502 13.986 13.61 14.2939 12.748C14.4332 12.3579 14.8624 12.1546 15.2525 12.2939C15.6425 12.4332 15.8458 12.8624 15.7065 13.2525C15.1572 14.7905 13.5588 15.7502 12.0002 15.7502C10.4416 15.7502 8.84318 14.7905 8.2939 13.2525C8.15458 12.8624 8.35787 12.4332 8.74795 12.2939ZM14.5 11C15.0523 11 15.5 10.5523 15.5 10C15.5 9.44772 15.0523 9 14.5 9C13.9477 9 13.5 9.44772 13.5 10C13.5 10.5523 13.9477 11 14.5 11Z" fill="#0FC5FF"/>
</g>
</svg>
